<svg xmlns="http://www.w3.org/2000/svg" width="16" height="15" fill="none"><path fill="#0F172A" fill-rule="evenodd" d="M2.25 3.5a.75.75 0 0 0-.75.75v8.5c0 .414.336.75.75.75h8.5a.75.75 0 0 0 .75-.75v-4a.75.75 0 0 1 1.5 0v4A2.25 2.25 0 0 1 10.75 15h-8.5A2.25 2.25 0 0 1 0 12.75v-8.5A2.25 2.25 0 0 1 2.25 2h5a.75.75 0 0 1 0 1.5h-5Z" clip-rule="evenodd"/><path fill="#0F172A" fill-rule="evenodd" d="M4.194 10.753a.75.75 0 0 0 1.06.053L14.5 2.44v2.81a.75.75 0 0 0 1.5 0V.75a.75.75 0 0 0-.75-.75h-4.5a.75.75 0 0 0 0 1.5h2.553L4.247 9.694a.75.75 0 0 0-.053 1.06Z" clip-rule="evenodd"/></svg>